# xmcd CD database file
#
# Track frame offsets:
#	150
#	11629
#	23539
#	34925
#	48912
#	62241
#	76423
#	89942
#	104863
#	117751
#	132711
#	142385
#	158003
#	171281
#	186024
#	198859
#
# Disc length: 2820 seconds
#
# Revision: 0
# Processed by: cddbd v1.5.1PL2 Copyright (c) Steve Scherf et al.
# Submitted via: CDex 1.51
#
DISCID=e80b0210
DTITLE=Billie holiday - Night and Day
DYEAR=1900
DGENRE=Jazz
TTITLE0=Why did I always depend on you
TTITLE1=Ghost of yesterday
TTITLE2=Having myslef a time
TTITLE3=I love my man
TTITLE4=Under the blue jungle moon
TTITLE5=Tell me more
TTITLE6=Night and day
TTITLE7=Yesterdays
TTITLE8=Forget if you can
TTITLE9=Lover come back to me
TTITLE10=I'm gonna lock my heart and throw away the key
TTITLE11=I cover the waterfront
TTITLE12=Swing, brother swing
TTITLE13=I'm yours
TTITLE14=Says my heart
TTITLE15=Everything happens for the best
EXTD=
EXTT0=
EXTT1=
EXTT2=
EXTT3=
EXTT4=
EXTT5=
EXTT6=
EXTT7=
EXTT8=
EXTT9=
EXTT10=
EXTT11=
EXTT12=
EXTT13=
EXTT14=
EXTT15=
PLAYORDER=
